<?xml version="1.0" encoding="UTF-8" standalone="no"?>
<!DOCTYPE svg PUBLIC "-//W3C//DTD SVG 1.1//EN"
 "http://www.w3.org/Graphics/SVG/1.1/DTD/svg11.dtd">
<!-- Generated by graphviz version 2.38.0 (20140413.2041)
 -->
<!-- Title: G Pages: 1 -->
<svg width="350pt" height="188pt"
 viewBox="0.00 0.00 350.28 188.00" xmlns="http://www.w3.org/2000/svg" xmlns:xlink="http://www.w3.org/1999/xlink">
<g id="graph0" class="graph" transform="scale(1 1) rotate(0) translate(4 184)">
<title>G</title>
<polygon fill="white" stroke="none" points="-4,4 -4,-184 346.275,-184 346.275,4 -4,4"/>
<!-- n1 -->
<g id="node1" class="node"><title>n1</title>
<polygon fill="none" stroke="black" points="107,-180 0,-180 0,-144 107,-144 107,-180"/>
<text text-anchor="middle" x="53.5" y="-158.3" font-family="Times" font-size="14.00">auto&#45;original.dta</text>
</g>
<!-- n3 -->
<g id="node3" class="node"><title>n3</title>
<path fill="none" stroke="blue" d="M170.5,-108C170.5,-108 80.5,-108 80.5,-108 74.5,-108 68.5,-102 68.5,-96 68.5,-96 68.5,-84 68.5,-84 68.5,-78 74.5,-72 80.5,-72 80.5,-72 170.5,-72 170.5,-72 176.5,-72 182.5,-78 182.5,-84 182.5,-84 182.5,-96 182.5,-96 182.5,-102 176.5,-108 170.5,-108"/>
<text text-anchor="middle" x="125.5" y="-86.3" font-family="Times" font-size="14.00">auto&#45;modified.dta</text>
</g>
<!-- n1&#45;&gt;n3 -->
<g id="edge1" class="edge"><title>n1&#45;&gt;n3</title>
<path fill="none" stroke="black" d="M71.2978,-143.697C80.104,-135.135 90.8821,-124.656 100.501,-115.304"/>
<polygon fill="black" stroke="black" points="103.177,-117.585 107.907,-108.104 98.2972,-112.566 103.177,-117.585"/>
</g>
<!-- n2 -->
<g id="node2" class="node"><title>n2</title>
<polygon fill="none" stroke="darkgreen" points="198.5,-180 124.935,-162 198.5,-144 272.065,-162 198.5,-180"/>
<text text-anchor="middle" x="198.5" y="-158.3" font-family="Times" font-size="14.00">dataprep.do</text>
</g>
<!-- n2&#45;&gt;n3 -->
<g id="edge2" class="edge"><title>n2&#45;&gt;n3</title>
<path fill="none" stroke="black" d="M184.078,-147.17C174.557,-138.041 161.827,-125.834 150.666,-115.131"/>
<polygon fill="black" stroke="black" points="152.889,-112.414 143.248,-108.019 148.044,-117.467 152.889,-112.414"/>
</g>
<!-- n5 -->
<g id="node5" class="node"><title>n5</title>
<ellipse fill="none" stroke="red" cx="198.5" cy="-18" rx="141.875" ry="18"/>
<text text-anchor="middle" x="198.5" y="-14.3" font-family="Times" font-size="14.00">[scatterplot.pdf, regressionTable.tex]</text>
</g>
<!-- n3&#45;&gt;n5 -->
<g id="edge4" class="edge"><title>n3&#45;&gt;n5</title>
<path fill="none" stroke="black" d="M143.545,-71.6966C152.629,-62.9857 163.783,-52.2902 173.663,-42.8163"/>
<polygon fill="black" stroke="black" points="176.119,-45.3103 180.915,-35.8628 171.274,-40.2578 176.119,-45.3103"/>
</g>
<!-- n4 -->
<g id="node4" class="node"><title>n4</title>
<polygon fill="none" stroke="darkgreen" points="271.5,-108 200.949,-90 271.5,-72 342.051,-90 271.5,-108"/>
<text text-anchor="middle" x="271.5" y="-86.3" font-family="Times" font-size="14.00">analysis.do</text>
</g>
<!-- n4&#45;&gt;n5 -->
<g id="edge3" class="edge"><title>n4&#45;&gt;n5</title>
<path fill="none" stroke="black" d="M257.425,-75.5033C247.865,-66.3359 234.953,-53.9549 223.653,-43.1191"/>
<polygon fill="black" stroke="black" points="225.788,-40.3177 216.148,-35.9227 220.943,-45.3702 225.788,-40.3177"/>
</g>
</g>
</svg>
