<?xml version="1.0" encoding="UTF-8" standalone="no"?>
<!DOCTYPE svg PUBLIC "-//W3C//DTD SVG 1.1//EN"
 "http://www.w3.org/Graphics/SVG/1.1/DTD/svg11.dtd">
<!-- Generated by graphviz version 2.38.0 (20140413.2041)
 -->
<!-- Title: G Pages: 1 -->
<svg width="405pt" height="278pt"
 viewBox="0.00 0.00 405.07 277.74" xmlns="http://www.w3.org/2000/svg" xmlns:xlink="http://www.w3.org/1999/xlink">
<g id="graph0" class="graph" transform="scale(1 1) rotate(0) translate(4 273.74)">
<title>G</title>
<polygon fill="white" stroke="none" points="-4,4 -4,-273.74 401.065,-273.74 401.065,4 -4,4"/>
<!-- n1 -->
<g id="node1" class="node"><title>n1</title>
<polygon fill="none" stroke="black" points="230.82,-269.74 123.82,-269.74 123.82,-233.74 230.82,-233.74 230.82,-269.74"/>
<text text-anchor="middle" x="177.32" y="-248.04" font-family="Times" font-size="14.00">auto&#45;original.dta</text>
</g>
<!-- n3 -->
<g id="node3" class="node"><title>n3</title>
<path fill="none" stroke="blue" d="M294.32,-197.74C294.32,-197.74 204.32,-197.74 204.32,-197.74 198.32,-197.74 192.32,-191.74 192.32,-185.74 192.32,-185.74 192.32,-173.74 192.32,-173.74 192.32,-167.74 198.32,-161.74 204.32,-161.74 204.32,-161.74 294.32,-161.74 294.32,-161.74 300.32,-161.74 306.32,-167.74 306.32,-173.74 306.32,-173.74 306.32,-185.74 306.32,-185.74 306.32,-191.74 300.32,-197.74 294.32,-197.74"/>
<text text-anchor="middle" x="249.32" y="-176.04" font-family="Times" font-size="14.00">auto&#45;modified.dta</text>
</g>
<!-- n1&#45;&gt;n3 -->
<g id="edge1" class="edge"><title>n1&#45;&gt;n3</title>
<path fill="none" stroke="black" d="M195.118,-233.437C203.924,-224.875 214.702,-214.396 224.321,-205.045"/>
<polygon fill="black" stroke="black" points="226.997,-207.325 231.727,-197.844 222.117,-202.306 226.997,-207.325"/>
</g>
<!-- n2 -->
<g id="node2" class="node"><title>n2</title>
<polygon fill="none" stroke="darkgreen" points="322.32,-269.74 248.755,-251.74 322.32,-233.74 395.885,-251.74 322.32,-269.74"/>
<text text-anchor="middle" x="322.32" y="-248.04" font-family="Times" font-size="14.00">dataprep.do</text>
</g>
<!-- n2&#45;&gt;n3 -->
<g id="edge2" class="edge"><title>n2&#45;&gt;n3</title>
<path fill="none" stroke="black" d="M307.897,-236.91C298.377,-227.781 285.646,-215.574 274.486,-204.872"/>
<polygon fill="black" stroke="black" points="276.709,-202.154 267.068,-197.759 271.864,-207.207 276.709,-202.154"/>
</g>
<!-- n5 -->
<g id="node5" class="node"><title>n5</title>
<path fill="none" stroke="blue" d="M209.32,-125.74C209.32,-125.74 127.32,-125.74 127.32,-125.74 121.32,-125.74 115.32,-119.74 115.32,-113.74 115.32,-113.74 115.32,-101.74 115.32,-101.74 115.32,-95.7401 121.32,-89.7401 127.32,-89.7401 127.32,-89.7401 209.32,-89.7401 209.32,-89.7401 215.32,-89.7401 221.32,-95.7401 221.32,-101.74 221.32,-101.74 221.32,-113.74 221.32,-113.74 221.32,-119.74 215.32,-125.74 209.32,-125.74"/>
<text text-anchor="middle" x="168.32" y="-104.04" font-family="Times" font-size="14.00">regressions.sters</text>
</g>
<!-- n3&#45;&gt;n5 -->
<g id="edge3" class="edge"><title>n3&#45;&gt;n5</title>
<path fill="none" stroke="black" d="M229.297,-161.437C219.194,-152.706 206.784,-141.981 195.802,-132.49"/>
<polygon fill="black" stroke="black" points="197.967,-129.735 188.112,-125.844 193.39,-135.031 197.967,-129.735"/>
</g>
<!-- n7 -->
<g id="node7" class="node"><title>n7</title>
<ellipse fill="none" stroke="red" cx="249.32" cy="-26.8701" rx="69.0935" ry="26.7407"/>
<text text-anchor="middle" x="249.32" y="-30.6701" font-family="Times" font-size="14.00">scatterplot.pdf </text>
<text text-anchor="middle" x="249.32" y="-15.6701" font-family="Times" font-size="14.00"> regTable.tex</text>
</g>
<!-- n3&#45;&gt;n7 -->
<g id="edge7" class="edge"><title>n3&#45;&gt;n7</title>
<path fill="none" stroke="black" d="M249.32,-161.727C249.32,-138.22 249.32,-95.2107 249.32,-64.2808"/>
<polygon fill="black" stroke="black" points="252.82,-63.8961 249.32,-53.8961 245.82,-63.8961 252.82,-63.8961"/>
</g>
<!-- n4 -->
<g id="node4" class="node"><title>n4</title>
<polygon fill="none" stroke="darkgreen" points="87.3199,-197.74 0.17969,-179.74 87.3199,-161.74 174.46,-179.74 87.3199,-197.74"/>
<text text-anchor="middle" x="87.3199" y="-176.04" font-family="Times" font-size="14.00">regressions.do</text>
</g>
<!-- n4&#45;&gt;n5 -->
<g id="edge4" class="edge"><title>n4&#45;&gt;n5</title>
<path fill="none" stroke="black" d="M103.323,-164.91C113.988,-155.693 128.284,-143.339 140.753,-132.563"/>
<polygon fill="black" stroke="black" points="143.349,-134.946 148.626,-125.759 138.772,-129.65 143.349,-134.946"/>
</g>
<!-- n5&#45;&gt;n7 -->
<g id="edge5" class="edge"><title>n5&#45;&gt;n7</title>
<path fill="none" stroke="black" d="M185.896,-89.6265C195.044,-80.7183 206.52,-69.5443 217.187,-59.1585"/>
<polygon fill="black" stroke="black" points="219.68,-61.6157 224.403,-52.1318 214.797,-56.6005 219.68,-61.6157"/>
</g>
<!-- n6 -->
<g id="node6" class="node"><title>n6</title>
<polygon fill="none" stroke="darkgreen" points="337.32,-125.74 277.328,-107.74 337.32,-89.7401 397.311,-107.74 337.32,-125.74"/>
<text text-anchor="middle" x="337.32" y="-104.04" font-family="Times" font-size="14.00">tabfig.do</text>
</g>
<!-- n6&#45;&gt;n7 -->
<g id="edge6" class="edge"><title>n6&#45;&gt;n7</title>
<path fill="none" stroke="black" d="M322.789,-93.7163C312.178,-84.207 297.337,-70.9056 283.769,-58.7451"/>
<polygon fill="black" stroke="black" points="285.752,-55.8223 275.969,-51.7544 281.08,-61.035 285.752,-55.8223"/>
</g>
</g>
</svg>
