<?xml version="1.0" encoding="UTF-8" standalone="no"?>
<!-- This is a Stata 17.0 generated SVG file (http://www.stata.com) -->

<svg version="1.1" width="5.500in" height="4.000in" viewBox="0 0 3960 2880" xmlns="http://www.w3.org/2000/svg" xmlns:xlink="http://www.w3.org/1999/xlink">
	<desc>Stata Graph - Graph</desc>
	<rect x="0" y="0" width="3960" height="2880" style="fill:#EAF2F3;stroke:none"/>
	<rect x="0.00" y="0.00" width="3959.88" height="2880.00" style="fill:#EAF2F3"/>
	<rect x="2.88" y="2.88" width="3954.12" height="2874.24" style="fill:none;stroke:#EAF2F3;stroke-width:5.76"/>
	<rect x="390.80" y="100.86" width="3468.22" height="2388.33" style="fill:#FFFFFF"/>
	<rect x="393.68" y="103.74" width="3462.46" height="2382.57" style="fill:none;stroke:#FFFFFF;stroke-width:5.76"/>
	<line x1="390.80" y1="2425.82" x2="3859.02" y2="2425.82" style="stroke:#EAF2F3;stroke-width:8.64"/>
	<line x1="390.80" y1="1860.39" x2="3859.02" y2="1860.39" style="stroke:#EAF2F3;stroke-width:8.64"/>
	<line x1="390.80" y1="1294.96" x2="3859.02" y2="1294.96" style="stroke:#EAF2F3;stroke-width:8.64"/>
	<line x1="390.80" y1="729.53" x2="3859.02" y2="729.53" style="stroke:#EAF2F3;stroke-width:8.64"/>
	<rect x="454.16" y="551.45" width="272.75" height="1874.38" style="fill:#486C8C"/>
	<rect x="457.04" y="554.33" width="266.99" height="1868.62" style="fill:none;stroke:#1A476F;stroke-width:5.76"/>
	<rect x="795.09" y="1190.39" width="272.74" height="1235.43" style="fill:#486C8C"/>
	<rect x="797.97" y="1193.27" width="266.99" height="1229.68" style="fill:none;stroke:#1A476F;stroke-width:5.76"/>
	<rect x="1136.15" y="1560.78" width="272.74" height="865.04" style="fill:#486C8C"/>
	<rect x="1139.03" y="1563.66" width="266.99" height="859.28" style="fill:none;stroke:#1A476F;stroke-width:5.76"/>
	<rect x="1477.08" y="1677.85" width="272.75" height="747.97" style="fill:#486C8C"/>
	<rect x="1479.96" y="1680.73" width="266.99" height="742.21" style="fill:none;stroke:#1A476F;stroke-width:5.76"/>
	<rect x="1818.01" y="1785.77" width="272.87" height="640.06" style="fill:#486C8C"/>
	<rect x="1820.89" y="1788.65" width="267.11" height="634.30" style="fill:none;stroke:#1A476F;stroke-width:5.76"/>
	<rect x="2159.07" y="1920.91" width="272.75" height="504.92" style="fill:#486C8C"/>
	<rect x="2161.95" y="1923.79" width="266.99" height="499.16" style="fill:none;stroke:#1A476F;stroke-width:5.76"/>
	<rect x="2500.00" y="1981.42" width="272.74" height="444.40" style="fill:#486C8C"/>
	<rect x="2502.88" y="1984.30" width="266.99" height="438.64" style="fill:none;stroke:#1A476F;stroke-width:5.76"/>
	<rect x="2840.93" y="2094.53" width="272.87" height="331.29" style="fill:#486C8C"/>
	<rect x="2843.81" y="2097.41" width="267.11" height="325.53" style="fill:none;stroke:#1A476F;stroke-width:5.76"/>
	<rect x="3181.98" y="2114.83" width="272.75" height="310.99" style="fill:#486C8C"/>
	<rect x="3184.86" y="2117.71" width="266.99" height="305.23" style="fill:none;stroke:#1A476F;stroke-width:5.76"/>
	<rect x="3522.92" y="2126.71" width="272.74" height="299.11" style="fill:#486C8C"/>
	<rect x="3525.79" y="2129.59" width="266.99" height="293.35" style="fill:none;stroke:#1A476F;stroke-width:5.76"/>
	<text x="590.54" y="509.49" style="font-family:'Helvetica';font-size:79.94px;fill:#90353b" text-anchor="middle">the</text>
	<text x="931.47" y="1148.44" style="font-family:'Helvetica';font-size:79.94px;fill:#90353b" text-anchor="middle">of</text>
	<text x="1272.52" y="1518.83" style="font-family:'Helvetica';font-size:79.94px;fill:#90353b" text-anchor="middle">and</text>
	<text x="1613.45" y="1635.90" style="font-family:'Helvetica';font-size:79.94px;fill:#90353b" text-anchor="middle">to</text>
	<text x="1954.38" y="1743.82" style="font-family:'Helvetica';font-size:79.94px;fill:#90353b" text-anchor="middle">a</text>
	<text x="2295.44" y="1878.95" style="font-family:'Helvetica';font-size:79.94px;fill:#90353b" text-anchor="middle">in</text>
	<text x="2636.37" y="1939.47" style="font-family:'Helvetica';font-size:79.94px;fill:#90353b" text-anchor="middle">is</text>
	<text x="2977.43" y="2052.58" style="font-family:'Helvetica';font-size:79.94px;fill:#90353b" text-anchor="middle">that</text>
	<text x="3318.36" y="2072.88" style="font-family:'Helvetica';font-size:79.94px;fill:#90353b" text-anchor="middle">by</text>
	<text x="3659.29" y="2084.76" style="font-family:'Helvetica';font-size:79.94px;fill:#90353b" text-anchor="middle">it</text>
	<line x1="390.80" y1="2489.19" x2="390.80" y2="100.86" style="stroke:#000000;stroke-width:5.76"/>
	<line x1="390.80" y1="2425.82" x2="350.83" y2="2425.82" style="stroke:#000000;stroke-width:5.76"/>
	<text x="300.72" y="2425.82" style="font-family:'Helvetica';font-size:99.99px;fill:#000000" transform="rotate(-90 300.72,2425.82)" text-anchor="middle">0</text>
	<line x1="390.80" y1="1860.39" x2="350.83" y2="1860.39" style="stroke:#000000;stroke-width:5.76"/>
	<text x="300.72" y="1860.39" style="font-family:'Helvetica';font-size:99.99px;fill:#000000" transform="rotate(-90 300.72,1860.39)" text-anchor="middle">1000</text>
	<line x1="390.80" y1="1294.96" x2="350.83" y2="1294.96" style="stroke:#000000;stroke-width:5.76"/>
	<text x="300.72" y="1294.96" style="font-family:'Helvetica';font-size:99.99px;fill:#000000" transform="rotate(-90 300.72,1294.96)" text-anchor="middle">2000</text>
	<line x1="390.80" y1="729.53" x2="350.83" y2="729.53" style="stroke:#000000;stroke-width:5.76"/>
	<text x="300.72" y="729.53" style="font-family:'Helvetica';font-size:99.99px;fill:#000000" transform="rotate(-90 300.72,729.53)" text-anchor="middle">3000</text>
	<line x1="390.80" y1="164.22" x2="350.83" y2="164.22" style="stroke:#000000;stroke-width:5.76"/>
	<text x="300.72" y="164.22" style="font-family:'Helvetica';font-size:99.99px;fill:#000000" transform="rotate(-90 300.72,164.22)" text-anchor="middle">4000</text>
	<text x="190.71" y="1294.96" style="font-family:'Helvetica';font-size:99.99px;fill:#000000" transform="rotate(-90 190.71,1294.96)" text-anchor="middle">freq</text>
	<line x1="390.80" y1="2489.19" x2="3859.02" y2="2489.19" style="stroke:#000000;stroke-width:5.76"/>
	<line x1="590.54" y1="2489.19" x2="590.54" y2="2529.16" style="stroke:#000000;stroke-width:5.76"/>
	<text x="590.54" y="2619.14" style="font-family:'Helvetica';font-size:99.99px;fill:#000000" text-anchor="middle">1</text>
	<line x1="931.47" y1="2489.19" x2="931.47" y2="2529.16" style="stroke:#000000;stroke-width:5.76"/>
	<text x="931.47" y="2619.14" style="font-family:'Helvetica';font-size:99.99px;fill:#000000" text-anchor="middle">2</text>
	<line x1="1272.52" y1="2489.19" x2="1272.52" y2="2529.16" style="stroke:#000000;stroke-width:5.76"/>
	<text x="1272.52" y="2619.14" style="font-family:'Helvetica';font-size:99.99px;fill:#000000" text-anchor="middle">3</text>
	<line x1="1613.45" y1="2489.19" x2="1613.45" y2="2529.16" style="stroke:#000000;stroke-width:5.76"/>
	<text x="1613.45" y="2619.14" style="font-family:'Helvetica';font-size:99.99px;fill:#000000" text-anchor="middle">4</text>
	<line x1="1954.38" y1="2489.19" x2="1954.38" y2="2529.16" style="stroke:#000000;stroke-width:5.76"/>
	<text x="1954.38" y="2619.14" style="font-family:'Helvetica';font-size:99.99px;fill:#000000" text-anchor="middle">5</text>
	<line x1="2295.44" y1="2489.19" x2="2295.44" y2="2529.16" style="stroke:#000000;stroke-width:5.76"/>
	<text x="2295.44" y="2619.14" style="font-family:'Helvetica';font-size:99.99px;fill:#000000" text-anchor="middle">6</text>
	<line x1="2636.37" y1="2489.19" x2="2636.37" y2="2529.16" style="stroke:#000000;stroke-width:5.76"/>
	<text x="2636.37" y="2619.14" style="font-family:'Helvetica';font-size:99.99px;fill:#000000" text-anchor="middle">7</text>
	<line x1="2977.43" y1="2489.19" x2="2977.43" y2="2529.16" style="stroke:#000000;stroke-width:5.76"/>
	<text x="2977.43" y="2619.14" style="font-family:'Helvetica';font-size:99.99px;fill:#000000" text-anchor="middle">8</text>
	<line x1="3318.36" y1="2489.19" x2="3318.36" y2="2529.16" style="stroke:#000000;stroke-width:5.76"/>
	<text x="3318.36" y="2619.14" style="font-family:'Helvetica';font-size:99.99px;fill:#000000" text-anchor="middle">9</text>
	<line x1="3659.29" y1="2489.19" x2="3659.29" y2="2529.16" style="stroke:#000000;stroke-width:5.76"/>
	<text x="3659.29" y="2619.14" style="font-family:'Helvetica';font-size:99.99px;fill:#000000" text-anchor="middle">10</text>
	<text x="2124.91" y="2729.16" style="font-family:'Helvetica';font-size:99.99px;fill:#000000" text-anchor="middle">place</text>
</svg>
