<?xml version="1.0" encoding="UTF-8" standalone="no"?>
<!-- This is a Stata 17.0 generated SVG file (http://www.stata.com) -->

<svg version="1.1" width="5.500in" height="4.000in" viewBox="0 0 3960 2880" xmlns="http://www.w3.org/2000/svg" xmlns:xlink="http://www.w3.org/1999/xlink">
	<desc>Stata Graph - Graph</desc>
	<rect x="0" y="0" width="3960" height="2880" style="fill:#EAF2F3;stroke:none"/>
	<rect x="0.00" y="0.00" width="3959.88" height="2880.00" style="fill:#EAF2F3"/>
	<rect x="2.88" y="2.88" width="3954.12" height="2874.24" style="fill:none;stroke:#EAF2F3;stroke-width:5.76"/>
	<rect x="390.80" y="100.86" width="3468.22" height="2388.33" style="fill:#FFFFFF"/>
	<rect x="393.68" y="103.74" width="3462.46" height="2382.57" style="fill:none;stroke:#FFFFFF;stroke-width:5.76"/>
	<line x1="390.80" y1="1860.39" x2="3859.02" y2="1860.39" style="stroke:#EAF2F3;stroke-width:8.64"/>
	<line x1="390.80" y1="1294.96" x2="3859.02" y2="1294.96" style="stroke:#EAF2F3;stroke-width:8.64"/>
	<line x1="390.80" y1="729.53" x2="3859.02" y2="729.53" style="stroke:#EAF2F3;stroke-width:8.64"/>
	<line x1="390.80" y1="164.22" x2="3859.02" y2="164.22" style="stroke:#EAF2F3;stroke-width:8.64"/>
	<rect x="454.16" y="425.34" width="272.75" height="2000.48" style="fill:#486C8C"/>
	<rect x="457.04" y="428.22" width="266.99" height="1994.72" style="fill:none;stroke:#1A476F;stroke-width:5.76"/>
	<rect x="795.09" y="998.69" width="272.74" height="1427.13" style="fill:#486C8C"/>
	<rect x="797.97" y="1001.57" width="266.99" height="1421.37" style="fill:none;stroke:#1A476F;stroke-width:5.76"/>
	<rect x="1136.15" y="1456.09" width="272.74" height="969.74" style="fill:#486C8C"/>
	<rect x="1139.03" y="1458.97" width="266.99" height="963.98" style="fill:none;stroke:#1A476F;stroke-width:5.76"/>
	<rect x="1477.08" y="1605.46" width="272.75" height="820.36" style="fill:#486C8C"/>
	<rect x="1479.96" y="1608.34" width="266.99" height="814.60" style="fill:none;stroke:#1A476F;stroke-width:5.76"/>
	<rect x="1818.01" y="1648.40" width="272.87" height="777.42" style="fill:#486C8C"/>
	<rect x="1820.89" y="1651.28" width="267.11" height="771.66" style="fill:none;stroke:#1A476F;stroke-width:5.76"/>
	<rect x="2159.07" y="1793.19" width="272.75" height="632.63" style="fill:#486C8C"/>
	<rect x="2161.95" y="1796.07" width="266.99" height="626.87" style="fill:none;stroke:#1A476F;stroke-width:5.76"/>
	<rect x="2500.00" y="1919.79" width="272.74" height="506.03" style="fill:#486C8C"/>
	<rect x="2502.88" y="1922.67" width="266.99" height="500.27" style="fill:none;stroke:#1A476F;stroke-width:5.76"/>
	<rect x="2840.93" y="2071.27" width="272.87" height="354.55" style="fill:#486C8C"/>
	<rect x="2843.81" y="2074.15" width="267.11" height="348.80" style="fill:none;stroke:#1A476F;stroke-width:5.76"/>
	<rect x="3181.98" y="2074.11" width="272.75" height="351.71" style="fill:#486C8C"/>
	<rect x="3184.86" y="2076.99" width="266.99" height="345.95" style="fill:none;stroke:#1A476F;stroke-width:5.76"/>
	<rect x="3522.92" y="2086.00" width="272.74" height="339.83" style="fill:#486C8C"/>
	<rect x="3525.79" y="2088.88" width="266.99" height="334.07" style="fill:none;stroke:#1A476F;stroke-width:5.76"/>
	<text x="590.54" y="383.39" style="font-family:'Helvetica';font-size:79.94px;fill:#90353b" text-anchor="middle">the</text>
	<text x="931.47" y="956.74" style="font-family:'Helvetica';font-size:79.94px;fill:#90353b" text-anchor="middle">and</text>
	<text x="1272.52" y="1414.14" style="font-family:'Helvetica';font-size:79.94px;fill:#90353b" text-anchor="middle">of</text>
	<text x="1613.45" y="1563.51" style="font-family:'Helvetica';font-size:79.94px;fill:#90353b" text-anchor="middle">a</text>
	<text x="1954.38" y="1606.45" style="font-family:'Helvetica';font-size:79.94px;fill:#90353b" text-anchor="middle">to</text>
	<text x="2295.44" y="1751.24" style="font-family:'Helvetica';font-size:79.94px;fill:#90353b" text-anchor="middle">in</text>
	<text x="2636.37" y="1877.84" style="font-family:'Helvetica';font-size:79.94px;fill:#90353b" text-anchor="middle">i</text>
	<text x="2977.43" y="2029.32" style="font-family:'Helvetica';font-size:79.94px;fill:#90353b" text-anchor="middle">it</text>
	<text x="3318.36" y="2032.16" style="font-family:'Helvetica';font-size:79.94px;fill:#90353b" text-anchor="middle">was</text>
	<text x="3659.29" y="2044.04" style="font-family:'Helvetica';font-size:79.94px;fill:#90353b" text-anchor="middle">for</text>
	<line x1="390.80" y1="2489.19" x2="390.80" y2="100.86" style="stroke:#000000;stroke-width:5.76"/>
	<line x1="390.80" y1="2425.82" x2="350.83" y2="2425.82" style="stroke:#000000;stroke-width:5.76"/>
	<text x="300.72" y="2425.82" style="font-family:'Helvetica';font-size:99.99px;fill:#000000" transform="rotate(-90 300.72,2425.82)" text-anchor="middle">0</text>
	<line x1="390.80" y1="1860.39" x2="350.83" y2="1860.39" style="stroke:#000000;stroke-width:5.76"/>
	<text x="300.72" y="1860.39" style="font-family:'Helvetica';font-size:99.99px;fill:#000000" transform="rotate(-90 300.72,1860.39)" text-anchor="middle">1000</text>
	<line x1="390.80" y1="1294.96" x2="350.83" y2="1294.96" style="stroke:#000000;stroke-width:5.76"/>
	<text x="300.72" y="1294.96" style="font-family:'Helvetica';font-size:99.99px;fill:#000000" transform="rotate(-90 300.72,1294.96)" text-anchor="middle">2000</text>
	<line x1="390.80" y1="729.53" x2="350.83" y2="729.53" style="stroke:#000000;stroke-width:5.76"/>
	<text x="300.72" y="729.53" style="font-family:'Helvetica';font-size:99.99px;fill:#000000" transform="rotate(-90 300.72,729.53)" text-anchor="middle">3000</text>
	<line x1="390.80" y1="164.22" x2="350.83" y2="164.22" style="stroke:#000000;stroke-width:5.76"/>
	<text x="300.72" y="164.22" style="font-family:'Helvetica';font-size:99.99px;fill:#000000" transform="rotate(-90 300.72,164.22)" text-anchor="middle">4000</text>
	<text x="190.71" y="1294.96" style="font-family:'Helvetica';font-size:99.99px;fill:#000000" transform="rotate(-90 190.71,1294.96)" text-anchor="middle">freq</text>
	<line x1="390.80" y1="2489.19" x2="3859.02" y2="2489.19" style="stroke:#000000;stroke-width:5.76"/>
	<line x1="590.54" y1="2489.19" x2="590.54" y2="2529.16" style="stroke:#000000;stroke-width:5.76"/>
	<text x="590.54" y="2619.14" style="font-family:'Helvetica';font-size:99.99px;fill:#000000" text-anchor="middle">1</text>
	<line x1="931.47" y1="2489.19" x2="931.47" y2="2529.16" style="stroke:#000000;stroke-width:5.76"/>
	<text x="931.47" y="2619.14" style="font-family:'Helvetica';font-size:99.99px;fill:#000000" text-anchor="middle">2</text>
	<line x1="1272.52" y1="2489.19" x2="1272.52" y2="2529.16" style="stroke:#000000;stroke-width:5.76"/>
	<text x="1272.52" y="2619.14" style="font-family:'Helvetica';font-size:99.99px;fill:#000000" text-anchor="middle">3</text>
	<line x1="1613.45" y1="2489.19" x2="1613.45" y2="2529.16" style="stroke:#000000;stroke-width:5.76"/>
	<text x="1613.45" y="2619.14" style="font-family:'Helvetica';font-size:99.99px;fill:#000000" text-anchor="middle">4</text>
	<line x1="1954.38" y1="2489.19" x2="1954.38" y2="2529.16" style="stroke:#000000;stroke-width:5.76"/>
	<text x="1954.38" y="2619.14" style="font-family:'Helvetica';font-size:99.99px;fill:#000000" text-anchor="middle">5</text>
	<line x1="2295.44" y1="2489.19" x2="2295.44" y2="2529.16" style="stroke:#000000;stroke-width:5.76"/>
	<text x="2295.44" y="2619.14" style="font-family:'Helvetica';font-size:99.99px;fill:#000000" text-anchor="middle">6</text>
	<line x1="2636.37" y1="2489.19" x2="2636.37" y2="2529.16" style="stroke:#000000;stroke-width:5.76"/>
	<text x="2636.37" y="2619.14" style="font-family:'Helvetica';font-size:99.99px;fill:#000000" text-anchor="middle">7</text>
	<line x1="2977.43" y1="2489.19" x2="2977.43" y2="2529.16" style="stroke:#000000;stroke-width:5.76"/>
	<text x="2977.43" y="2619.14" style="font-family:'Helvetica';font-size:99.99px;fill:#000000" text-anchor="middle">8</text>
	<line x1="3318.36" y1="2489.19" x2="3318.36" y2="2529.16" style="stroke:#000000;stroke-width:5.76"/>
	<text x="3318.36" y="2619.14" style="font-family:'Helvetica';font-size:99.99px;fill:#000000" text-anchor="middle">9</text>
	<line x1="3659.29" y1="2489.19" x2="3659.29" y2="2529.16" style="stroke:#000000;stroke-width:5.76"/>
	<text x="3659.29" y="2619.14" style="font-family:'Helvetica';font-size:99.99px;fill:#000000" text-anchor="middle">10</text>
	<text x="2124.91" y="2729.16" style="font-family:'Helvetica';font-size:99.99px;fill:#000000" text-anchor="middle">place</text>
</svg>
