<?xml version="1.0" encoding="UTF-8" standalone="no"?>
<!DOCTYPE svg PUBLIC "-//W3C//DTD SVG 1.1//EN"
 "http://www.w3.org/Graphics/SVG/1.1/DTD/svg11.dtd">
<!-- Generated by graphviz version 2.38.0 (20140413.2041)
 -->
<!-- Title: G Pages: 1 -->
<svg width="525pt" height="350pt"
 viewBox="0.00 0.00 525.34 349.74" xmlns="http://www.w3.org/2000/svg" xmlns:xlink="http://www.w3.org/1999/xlink">
<g id="graph0" class="graph" transform="scale(1 1) rotate(0) translate(4 345.74)">
<title>G</title>
<polygon fill="white" stroke="none" points="-4,4 -4,-345.74 521.338,-345.74 521.338,4 -4,4"/>
<!-- n1 -->
<g id="node1" class="node"><title>n1</title>
<polygon fill="none" stroke="black" points="299.092,-341.74 192.092,-341.74 192.092,-305.74 299.092,-305.74 299.092,-341.74"/>
<text text-anchor="middle" x="245.592" y="-320.04" font-family="Times" font-size="14.00">auto&#45;original.dta</text>
</g>
<!-- n3 -->
<g id="node3" class="node"><title>n3</title>
<path fill="none" stroke="blue" d="M362.592,-269.74C362.592,-269.74 272.592,-269.74 272.592,-269.74 266.592,-269.74 260.592,-263.74 260.592,-257.74 260.592,-257.74 260.592,-245.74 260.592,-245.74 260.592,-239.74 266.592,-233.74 272.592,-233.74 272.592,-233.74 362.592,-233.74 362.592,-233.74 368.592,-233.74 374.592,-239.74 374.592,-245.74 374.592,-245.74 374.592,-257.74 374.592,-257.74 374.592,-263.74 368.592,-269.74 362.592,-269.74"/>
<text text-anchor="middle" x="317.592" y="-248.04" font-family="Times" font-size="14.00">auto&#45;modified.dta</text>
</g>
<!-- n1&#45;&gt;n3 -->
<g id="edge1" class="edge"><title>n1&#45;&gt;n3</title>
<path fill="none" stroke="black" d="M263.39,-305.437C272.196,-296.875 282.975,-286.396 292.593,-277.045"/>
<polygon fill="black" stroke="black" points="295.269,-279.325 299.999,-269.844 290.39,-274.306 295.269,-279.325"/>
</g>
<!-- n2 -->
<g id="node2" class="node"><title>n2</title>
<polygon fill="none" stroke="darkgreen" points="390.592,-341.74 317.027,-323.74 390.592,-305.74 464.158,-323.74 390.592,-341.74"/>
<text text-anchor="middle" x="390.592" y="-320.04" font-family="Times" font-size="14.00">dataprep.do</text>
</g>
<!-- n2&#45;&gt;n3 -->
<g id="edge2" class="edge"><title>n2&#45;&gt;n3</title>
<path fill="none" stroke="black" d="M376.17,-308.91C366.649,-299.781 353.919,-287.574 342.758,-276.872"/>
<polygon fill="black" stroke="black" points="344.981,-274.154 335.341,-269.759 340.136,-279.207 344.981,-274.154"/>
</g>
<!-- n9 -->
<g id="node5" class="node"><title>n9</title>
<polygon fill="none" stroke="blue" points="149.092,-197.74 42.0924,-197.74 42.0924,-161.74 149.092,-161.74 149.092,-197.74"/>
<text text-anchor="middle" x="95.5924" y="-176.04" font-family="Times" font-size="14.00">auto&#45;noMeta.dta</text>
</g>
<!-- n3&#45;&gt;n9 -->
<g id="edge4" class="edge"><title>n3&#45;&gt;n9</title>
<path fill="none" stroke="black" d="M263.569,-233.706C232.029,-223.761 192.069,-211.161 159.038,-200.745"/>
<polygon fill="black" stroke="black" points="160.063,-197.399 149.473,-197.729 157.957,-204.075 160.063,-197.399"/>
</g>
<!-- n7 -->
<g id="node9" class="node"><title>n7</title>
<ellipse fill="none" stroke="red" cx="369.592" cy="-26.8701" rx="69.0935" ry="26.7407"/>
<text text-anchor="middle" x="369.592" y="-30.6701" font-family="Times" font-size="14.00">scatterplot.pdf </text>
<text text-anchor="middle" x="369.592" y="-15.6701" font-family="Times" font-size="14.00"> regTable.tex</text>
</g>
<!-- n3&#45;&gt;n7 -->
<g id="edge9" class="edge"><title>n3&#45;&gt;n7</title>
<path fill="none" stroke="black" d="M331.014,-233.6C338.049,-223.683 346.113,-210.642 350.592,-197.74 365.939,-153.534 369.588,-99.3357 370.128,-64.2273"/>
<polygon fill="black" stroke="black" points="373.63,-64.0028 370.205,-53.9767 366.63,-63.95 373.63,-64.0028"/>
</g>
<!-- n8 -->
<g id="node4" class="node"><title>n8</title>
<polygon fill="none" stroke="darkgreen" points="95.5924,-269.74 -0.0924442,-251.74 95.5924,-233.74 191.277,-251.74 95.5924,-269.74"/>
<text text-anchor="middle" x="95.5924" y="-248.04" font-family="Times" font-size="14.00">removeMeta.do</text>
</g>
<!-- n8&#45;&gt;n9 -->
<g id="edge3" class="edge"><title>n8&#45;&gt;n9</title>
<path fill="none" stroke="black" d="M95.5924,-233.437C95.5924,-225.723 95.5924,-216.453 95.5924,-207.853"/>
<polygon fill="black" stroke="black" points="99.0925,-207.844 95.5924,-197.844 92.0925,-207.844 99.0925,-207.844"/>
</g>
<!-- n5 -->
<g id="node7" class="node"><title>n5</title>
<path fill="none" stroke="blue" d="M295.592,-125.74C295.592,-125.74 213.592,-125.74 213.592,-125.74 207.592,-125.74 201.592,-119.74 201.592,-113.74 201.592,-113.74 201.592,-101.74 201.592,-101.74 201.592,-95.7401 207.592,-89.7401 213.592,-89.7401 213.592,-89.7401 295.592,-89.7401 295.592,-89.7401 301.592,-89.7401 307.592,-95.7401 307.592,-101.74 307.592,-101.74 307.592,-113.74 307.592,-113.74 307.592,-119.74 301.592,-125.74 295.592,-125.74"/>
<text text-anchor="middle" x="254.592" y="-104.04" font-family="Times" font-size="14.00">regressions.sters</text>
</g>
<!-- n9&#45;&gt;n5 -->
<g id="edge5" class="edge"><title>n9&#45;&gt;n5</title>
<path fill="none" stroke="black" d="M134.488,-161.616C156.224,-152.047 183.496,-140.04 206.557,-129.888"/>
<polygon fill="black" stroke="black" points="208.081,-133.041 215.823,-125.808 205.26,-126.634 208.081,-133.041"/>
</g>
<!-- n4 -->
<g id="node6" class="node"><title>n4</title>
<polygon fill="none" stroke="darkgreen" points="254.592,-197.74 167.452,-179.74 254.592,-161.74 341.733,-179.74 254.592,-197.74"/>
<text text-anchor="middle" x="254.592" y="-176.04" font-family="Times" font-size="14.00">regressions.do</text>
</g>
<!-- n4&#45;&gt;n5 -->
<g id="edge6" class="edge"><title>n4&#45;&gt;n5</title>
<path fill="none" stroke="black" d="M254.592,-161.437C254.592,-153.723 254.592,-144.453 254.592,-135.853"/>
<polygon fill="black" stroke="black" points="258.092,-135.844 254.592,-125.844 251.092,-135.844 258.092,-135.844"/>
</g>
<!-- n5&#45;&gt;n7 -->
<g id="edge7" class="edge"><title>n5&#45;&gt;n7</title>
<path fill="none" stroke="black" d="M279.546,-89.6265C293.722,-79.9043 311.833,-67.4831 328.09,-56.3333"/>
<polygon fill="black" stroke="black" points="330.125,-59.1819 336.392,-50.6395 326.166,-53.4091 330.125,-59.1819"/>
</g>
<!-- n6 -->
<g id="node8" class="node"><title>n6</title>
<polygon fill="none" stroke="darkgreen" points="457.592,-125.74 397.601,-107.74 457.592,-89.7401 517.584,-107.74 457.592,-125.74"/>
<text text-anchor="middle" x="457.592" y="-104.04" font-family="Times" font-size="14.00">tabfig.do</text>
</g>
<!-- n6&#45;&gt;n7 -->
<g id="edge8" class="edge"><title>n6&#45;&gt;n7</title>
<path fill="none" stroke="black" d="M443.061,-93.7163C432.451,-84.207 417.61,-70.9056 404.042,-58.7451"/>
<polygon fill="black" stroke="black" points="406.024,-55.8223 396.242,-51.7544 401.352,-61.035 406.024,-55.8223"/>
</g>
</g>
</svg>
